<svg xmlns="http://www.w3.org/2000/svg" viewBox="0 0 64 64" role="img" aria-labelledby="title">
  <title id="title">IOANA TRADING — pin siluetă într-un glob</title>
  <circle cx="32" cy="32" r="29.2" fill="#1b382e" stroke="#b97858" stroke-width="1.6" />
  <ellipse cx="32" cy="32" rx="20.5" ry="26" fill="none" stroke="#eee8d8" stroke-width="1" opacity=".28" />
  <path d="M8.5 32h47M12.3 22.7c5.3 2 12 3 19.7 3s14.4-1 19.7-3M12.3 41.3c5.3-2 12-3 19.7-3s14.4 1 19.7 3" fill="none" stroke="#eee8d8" stroke-width="1" opacity=".28" />
  <path d="M32 9.5 23.4 21h5.1l-8.6 10.3h6.3L15.7 42h12.7v10.2h7.2V42h12.7l-10.5-10.7h6.3L35.5 21h5.1L32 9.5Z" fill="#f2efe7" />
  <path d="M32 45v6.1" stroke="#b97858" stroke-width="1.5" stroke-linecap="round" />
</svg>
